# xmcd CD database file
#
# Track frame offsets:
#	183
#	12683
#	25893
#	41533
#	53983
#	68868
#	85665
#	99675
#	121285
#	134800
#	148058
#	161755
#	173193
#	189795
#	204823
#	221435
#
# Disc length: 3207 seconds
#
# Revision: 6
# Processed by: cddbd v1.5.2PL0 Copyright (c) Steve Scherf et al.
# Submitted via: CDex 1.51
#
DISCID=e50c8510
DTITLE=Peter Green with Nigel Watson - Robert Johnson Songbook
DYEAR=1998
DGENRE=Blues
TTITLE0=When You Got A Good Friend
TTITLE1=32-20 Blues
TTITLE2=Phonograph Blues
TTITLE3=Last Fair Deal Gone Down
TTITLE4=Stop Breakin' Down Blues
TTITLE5=Terraplane Blues
TTITLE6=Walkin' Blues
TTITLE7=Love In Vain Blues
TTITLE8=Ramblin' On My Mind
TTITLE9=Stones In My Passway
TTITLE10=Me And The Devil Blues
TTITLE11=Honeymoon Blues
TTITLE12=Kind Hearted Woman Blues
TTITLE13=I Believe I'll Dust My Broom
TTITLE14=If I Had Possession Over Judgment Day
TTITLE15=Sweet Home Chicago
EXTD=(c) 1998 Snapper Music YEAR: 1998
EXTT0=
EXTT1=
EXTT2=
EXTT3=
EXTT4=
EXTT5=
EXTT6=
EXTT7=
EXTT8=
EXTT9=
EXTT10=
EXTT11=
EXTT12=
EXTT13=
EXTT14=
EXTT15=
PLAYORDER=
